<svg xmlns="http://www.w3.org/2000/svg" viewBox="0 0 640 360" width="640" height="360" role="img" aria-label="A pheromone path search and a genetic crossover combining into a single optimum">
  <g fill="none" stroke="#6b7391" stroke-width="1" opacity="0.55">
    <path d="M 70 92 L 140 66 L 210 100 L 268 78"/>
    <path d="M 70 92 L 132 122 L 210 100"/>
    <path d="M 132 122 L 196 148 L 268 78"/>
  </g>
  <polyline fill="none" stroke="#696fb4" stroke-width="2.5" stroke-linejoin="round"
            points="70,92 140,66 210,100 268,78"/>
  <g fill="#696fb4">
    <circle cx="70" cy="92" r="4.5"/><circle cx="140" cy="66" r="4.5"/>
    <circle cx="210" cy="100" r="4.5"/><circle cx="268" cy="78" r="4.5"/>
  </g>
  <g fill="none" stroke="#6b7391"><circle cx="132" cy="122" r="3.5"/><circle cx="196" cy="148" r="3.5"/></g>

  <g stroke="#6b7391" stroke-width="2" stroke-linecap="round" opacity="0.85">
    <line x1="70" y1="236" x2="150" y2="236"/>
    <line x1="70" y1="266" x2="150" y2="266"/>
  </g>
  <g stroke="#696fb4" stroke-width="2" stroke-linecap="round">
    <line x1="150" y1="236" x2="200" y2="266"/>
    <line x1="150" y1="266" x2="200" y2="236"/>
    <line x1="200" y1="236" x2="268" y2="236"/>
    <line x1="200" y1="266" x2="268" y2="266"/>
  </g>
  <g fill="#696fb4">
    <circle cx="150" cy="236" r="3.5"/><circle cx="150" cy="266" r="3.5"/>
    <circle cx="200" cy="236" r="3.5"/><circle cx="200" cy="266" r="3.5"/>
  </g>

  <g stroke="#6b7391" stroke-width="1" opacity="0.5" fill="none">
    <path d="M 268 78 C 350 78 350 176 418 176"/>
    <path d="M 268 251 C 350 251 350 176 418 176"/>
  </g>

  <circle cx="440" cy="176" r="22" fill="none" stroke="#696fb4" stroke-width="2"/>
  <circle cx="440" cy="176" r="8" fill="#696fb4"/>
  <g stroke="#6b7391" stroke-width="1.5" opacity="0.7">
    <line x1="440" y1="132" x2="440" y2="146"/>
    <line x1="440" y1="206" x2="440" y2="220"/>
    <line x1="396" y1="176" x2="410" y2="176"/>
    <line x1="470" y1="176" x2="484" y2="176"/>
  </g>
  <g fill="none" stroke="#6b7391" stroke-width="1.5" opacity="0.9">
    <circle cx="440" cy="176" r="40"/>
    <circle cx="440" cy="176" r="58"/>
  </g>
</svg>
